<?xml version="1.0" encoding="UTF-8" standalone="no"?><svg xmlns="http://www.w3.org/2000/svg" xmlns:xlink="http://www.w3.org/1999/xlink" contentStyleType="text/css" height="346px" preserveAspectRatio="none" style="width:458px;height:346px;background:#FFFFFF;" version="1.1" viewBox="0 0 458 346" width="458px" zoomAndPan="magnify"><defs/><g><!--MD5=[cf98b8104f7f757d2a3327e9c712e420]
class Funcionario--><g id="elem_Funcionario"><rect codeLine="3" fill="#F1F1F1" height="153.6563" id="Funcionario" rx="2.5" ry="2.5" style="stroke:#181818;stroke-width:0.5;" width="375" x="41.5" y="7"/><ellipse cx="187.25" cy="23" fill="#ADD1B2" rx="11" ry="11" style="stroke:#181818;stroke-width:1.0;"/><path d="M190.0156,18.875 Q190.1719,18.6563 190.3594,18.5469 Q190.5469,18.4375 190.7656,18.4375 Q191.1406,18.4375 191.375,18.7031 Q191.6094,18.9531 191.6094,19.5625 L191.6094,21.0156 Q191.6094,21.625 191.375,21.8906 Q191.1406,22.1563 190.7656,22.1563 Q190.4219,22.1563 190.2188,21.9531 Q190.0156,21.7656 189.9063,21.25 Q189.8594,20.8906 189.6719,20.7031 Q189.3438,20.3281 188.7344,20.1094 Q188.125,19.8906 187.5,19.8906 Q186.7344,19.8906 186.0938,20.2188 Q185.4688,20.5469 184.9688,21.2969 Q184.4844,22.0469 184.4844,23.0781 L184.4844,24.1719 Q184.4844,25.4063 185.375,26.2344 Q186.2656,27.0469 187.8594,27.0469 Q188.7969,27.0469 189.4531,26.7969 Q189.8438,26.6406 190.2656,26.2031 Q190.5313,25.9375 190.6719,25.8594 Q190.8281,25.7813 191.0313,25.7813 Q191.3594,25.7813 191.6094,26.0469 Q191.875,26.2969 191.875,26.6406 Q191.875,26.9844 191.5313,27.3906 Q191.0313,27.9688 190.2344,28.2969 Q189.1563,28.75 187.8594,28.75 Q186.3438,28.75 185.1406,28.125 Q184.1563,27.625 183.4688,26.5625 Q182.7813,25.4844 182.7813,24.2031 L182.7813,23.0469 Q182.7813,21.7188 183.3906,20.5781 Q184.0156,19.4219 185.1094,18.8125 Q186.2031,18.1875 187.4375,18.1875 Q188.1719,18.1875 188.8125,18.3594 Q189.4688,18.5156 190.0156,18.875 Z " fill="#000000"/><text fill="#000000" font-family="sans-serif" font-size="14" lengthAdjust="spacing" textLength="75" x="207.75" y="28.7285">Funcionario</text><line style="stroke:#181818;stroke-width:0.5;" x1="42.5" x2="415.5" y1="39" y2="39"/><text fill="#000000" font-family="sans-serif" font-size="14" lengthAdjust="spacing" textLength="85" x="47.5" y="57.5332">-nome: String</text><text fill="#000000" font-family="sans-serif" font-size="14" lengthAdjust="spacing" textLength="69" x="47.5" y="75.1426">-cpf: String</text><text fill="#000000" font-family="sans-serif" font-size="14" lengthAdjust="spacing" textLength="165" x="47.5" y="92.752">#dataDeNascimento: Data</text><text fill="#000000" font-family="sans-serif" font-size="14" lengthAdjust="spacing" textLength="103" x="47.5" y="110.3613">~salario: Double</text><line style="stroke:#181818;stroke-width:0.5;" x1="42.5" x2="415.5" y1="117.4375" y2="117.4375"/><text fill="#000000" font-family="sans-serif" font-size="14" lengthAdjust="spacing" textLength="363" x="47.5" y="135.9707">+Funcionario(nome: String, cpf: String, nascimento: Data)</text><text fill="#000000" font-family="sans-serif" font-size="14" lengthAdjust="spacing" textLength="112" x="47.5" y="153.5801">+toString(): String</text></g><!--MD5=[d6bb3a5d1e0ba0d7ac313aaf978bef09]
class Gerente--><g id="elem_Gerente"><rect codeLine="13" fill="#F1F1F1" height="118.4375" id="Gerente" rx="2.5" ry="2.5" style="stroke:#181818;stroke-width:0.5;" width="444" x="7" y="221"/><ellipse cx="198.75" cy="237" fill="#ADD1B2" rx="11" ry="11" style="stroke:#181818;stroke-width:1.0;"/><path d="M201.5156,232.875 Q201.6719,232.6563 201.8594,232.5469 Q202.0469,232.4375 202.2656,232.4375 Q202.6406,232.4375 202.875,232.7031 Q203.1094,232.9531 203.1094,233.5625 L203.1094,235.0156 Q203.1094,235.625 202.875,235.8906 Q202.6406,236.1563 202.2656,236.1563 Q201.9219,236.1563 201.7188,235.9531 Q201.5156,235.7656 201.4063,235.25 Q201.3594,234.8906 201.1719,234.7031 Q200.8438,234.3281 200.2344,234.1094 Q199.625,233.8906 199,233.8906 Q198.2344,233.8906 197.5938,234.2188 Q196.9688,234.5469 196.4688,235.2969 Q195.9844,236.0469 195.9844,237.0781 L195.9844,238.1719 Q195.9844,239.4063 196.875,240.2344 Q197.7656,241.0469 199.3594,241.0469 Q200.2969,241.0469 200.9531,240.7969 Q201.3438,240.6406 201.7656,240.2031 Q202.0313,239.9375 202.1719,239.8594 Q202.3281,239.7813 202.5313,239.7813 Q202.8594,239.7813 203.1094,240.0469 Q203.375,240.2969 203.375,240.6406 Q203.375,240.9844 203.0313,241.3906 Q202.5313,241.9688 201.7344,242.2969 Q200.6563,242.75 199.3594,242.75 Q197.8438,242.75 196.6406,242.125 Q195.6563,241.625 194.9688,240.5625 Q194.2813,239.4844 194.2813,238.2031 L194.2813,237.0469 Q194.2813,235.7188 194.8906,234.5781 Q195.5156,233.4219 196.6094,232.8125 Q197.7031,232.1875 198.9375,232.1875 Q199.6719,232.1875 200.3125,232.3594 Q200.9688,232.5156 201.5156,232.875 Z " fill="#000000"/><text fill="#000000" font-family="sans-serif" font-size="14" lengthAdjust="spacing" textLength="52" x="219.25" y="242.7285">Gerente</text><line style="stroke:#181818;stroke-width:0.5;" x1="8" x2="450" y1="253" y2="253"/><text fill="#000000" font-family="sans-serif" font-size="14" lengthAdjust="spacing" textLength="89" x="13" y="271.5332">-senha: String</text><line style="stroke:#181818;stroke-width:0.5;" x1="8" x2="450" y1="278.6094" y2="278.6094"/><text fill="#000000" font-family="sans-serif" font-size="14" lengthAdjust="spacing" textLength="432" x="13" y="297.1426">+Gerente(nome: String, cpf: String, nascimento: Data, senha: String)</text><text fill="#000000" font-family="sans-serif" font-size="14" lengthAdjust="spacing" textLength="220" x="13" y="314.752">+autentica(senha: String): Boolean</text><text fill="#000000" font-family="sans-serif" font-size="14" lengthAdjust="spacing" textLength="112" x="13" y="332.3613">+toString(): String</text></g><!--MD5=[ba8893a21931a03fa56396e83ffba705]
reverse link Funcionario to Gerente--><g id="link_Funcionario_Gerente"><path codeLine="20" d="M229,181.4 C229,194.87 229,208.34 229,220.8 " fill="none" id="Funcionario-backto-Gerente" style="stroke:#181818;stroke-width:1.0;"/><polygon fill="none" points="222,181.12,229,161.12,236,181.12,222,181.12" style="stroke:#181818;stroke-width:1.0;"/></g><!--MD5=[91a8dd62594fad28b38221089b78ba0a]
@startuml
skinparam classAttributeIconSize 0

class Funcionario {
    -nome: String
    -cpf: String
    #dataDeNascimento: Data
    ~salario: Double
    +Funcionario(nome: String, cpf: String, nascimento: Data)
    +toString(): String

}

class Gerente {
    -senha: String
    +Gerente(nome: String, cpf: String, nascimento: Data, senha: String)
    +autentica(senha: String): Boolean
    +toString(): String
}

Funcionario <|- - Gerente

@enduml

PlantUML version 1.2022.7(Mon Aug 22 14:01:30 BRT 2022)
(GPL source distribution)
Java Runtime: Java(TM) SE Runtime Environment
JVM: Java HotSpot(TM) 64-Bit Server VM
Default Encoding: UTF-8
Language: pt
Country: BR
--></g></svg>