<?xml version="1.0" encoding="UTF-8" standalone="no"?><svg xmlns="http://www.w3.org/2000/svg" xmlns:xlink="http://www.w3.org/1999/xlink" contentStyleType="text/css" height="417px" preserveAspectRatio="none" style="width:782px;height:417px;background:#FFFFFF;" version="1.1" viewBox="0 0 782 417" width="782px" zoomAndPan="magnify"><defs/><g><!--MD5=[36c1942e8942a3e4f47e6de3733e3d18]
class Endereco--><g id="elem_Endereco"><rect codeLine="3" fill="#F1F1F1" height="188.875" id="Endereco" rx="2.5" ry="2.5" style="stroke:#181818;stroke-width:0.5;" width="146" x="256" y="33.5"/><ellipse cx="294.85" cy="49.5" fill="#ADD1B2" rx="11" ry="11" style="stroke:#181818;stroke-width:1.0;"/><path d="M297.6156,45.375 Q297.7719,45.1563 297.9594,45.0469 Q298.1469,44.9375 298.3656,44.9375 Q298.7406,44.9375 298.975,45.2031 Q299.2094,45.4531 299.2094,46.0625 L299.2094,47.5156 Q299.2094,48.125 298.975,48.3906 Q298.7406,48.6563 298.3656,48.6563 Q298.0219,48.6563 297.8188,48.4531 Q297.6156,48.2656 297.5063,47.75 Q297.4594,47.3906 297.2719,47.2031 Q296.9438,46.8281 296.3344,46.6094 Q295.725,46.3906 295.1,46.3906 Q294.3344,46.3906 293.6938,46.7188 Q293.0688,47.0469 292.5688,47.7969 Q292.0844,48.5469 292.0844,49.5781 L292.0844,50.6719 Q292.0844,51.9063 292.975,52.7344 Q293.8656,53.5469 295.4594,53.5469 Q296.3969,53.5469 297.0531,53.2969 Q297.4438,53.1406 297.8656,52.7031 Q298.1313,52.4375 298.2719,52.3594 Q298.4281,52.2813 298.6313,52.2813 Q298.9594,52.2813 299.2094,52.5469 Q299.475,52.7969 299.475,53.1406 Q299.475,53.4844 299.1313,53.8906 Q298.6313,54.4688 297.8344,54.7969 Q296.7563,55.25 295.4594,55.25 Q293.9438,55.25 292.7406,54.625 Q291.7563,54.125 291.0688,53.0625 Q290.3813,51.9844 290.3813,50.7031 L290.3813,49.5469 Q290.3813,48.2188 290.9906,47.0781 Q291.6156,45.9219 292.7094,45.3125 Q293.8031,44.6875 295.0375,44.6875 Q295.7719,44.6875 296.4125,44.8594 Q297.0688,45.0156 297.6156,45.375 Z " fill="#000000"/><text fill="#000000" font-family="sans-serif" font-size="14" lengthAdjust="spacing" textLength="61" x="314.15" y="55.2285">Endereco</text><line style="stroke:#181818;stroke-width:0.5;" x1="257" x2="401" y1="65.5" y2="65.5"/><text fill="#000000" font-family="sans-serif" font-size="14" lengthAdjust="spacing" textLength="119" x="262" y="84.0332">-logradouro: String</text><text fill="#000000" font-family="sans-serif" font-size="14" lengthAdjust="spacing" textLength="98" x="262" y="101.6426">-numero: String</text><text fill="#000000" font-family="sans-serif" font-size="14" lengthAdjust="spacing" textLength="134" x="262" y="119.252">-complemento: String</text><text fill="#000000" font-family="sans-serif" font-size="14" lengthAdjust="spacing" textLength="87" x="262" y="136.8613">-bairro: String</text><text fill="#000000" font-family="sans-serif" font-size="14" lengthAdjust="spacing" textLength="73" x="262" y="154.4707">-cep: String</text><text fill="#000000" font-family="sans-serif" font-size="14" lengthAdjust="spacing" textLength="92" x="262" y="172.0801">-cidade: String</text><text fill="#000000" font-family="sans-serif" font-size="14" lengthAdjust="spacing" textLength="93" x="262" y="189.6895">-estado: String</text><text fill="#000000" font-family="sans-serif" font-size="14" lengthAdjust="spacing" textLength="76" x="262" y="207.2988">-pais: String</text><line style="stroke:#181818;stroke-width:0.5;" x1="257" x2="401" y1="214.375" y2="214.375"/></g><!--MD5=[bc6b894e3d18da8d9f25806dc8286ece]
class Cargo--><g id="elem_Cargo"><rect codeLine="14" fill="#F1F1F1" height="83.2188" id="Cargo" rx="2.5" ry="2.5" style="stroke:#181818;stroke-width:0.5;" width="193" x="529.5" y="327"/><ellipse cx="602.25" cy="343" fill="#ADD1B2" rx="11" ry="11" style="stroke:#181818;stroke-width:1.0;"/><path d="M605.0156,338.875 Q605.1719,338.6563 605.3594,338.5469 Q605.5469,338.4375 605.7656,338.4375 Q606.1406,338.4375 606.375,338.7031 Q606.6094,338.9531 606.6094,339.5625 L606.6094,341.0156 Q606.6094,341.625 606.375,341.8906 Q606.1406,342.1563 605.7656,342.1563 Q605.4219,342.1563 605.2188,341.9531 Q605.0156,341.7656 604.9063,341.25 Q604.8594,340.8906 604.6719,340.7031 Q604.3438,340.3281 603.7344,340.1094 Q603.125,339.8906 602.5,339.8906 Q601.7344,339.8906 601.0938,340.2188 Q600.4688,340.5469 599.9688,341.2969 Q599.4844,342.0469 599.4844,343.0781 L599.4844,344.1719 Q599.4844,345.4063 600.375,346.2344 Q601.2656,347.0469 602.8594,347.0469 Q603.7969,347.0469 604.4531,346.7969 Q604.8438,346.6406 605.2656,346.2031 Q605.5313,345.9375 605.6719,345.8594 Q605.8281,345.7813 606.0313,345.7813 Q606.3594,345.7813 606.6094,346.0469 Q606.875,346.2969 606.875,346.6406 Q606.875,346.9844 606.5313,347.3906 Q606.0313,347.9688 605.2344,348.2969 Q604.1563,348.75 602.8594,348.75 Q601.3438,348.75 600.1406,348.125 Q599.1563,347.625 598.4688,346.5625 Q597.7813,345.4844 597.7813,344.2031 L597.7813,343.0469 Q597.7813,341.7188 598.3906,340.5781 Q599.0156,339.4219 600.1094,338.8125 Q601.2031,338.1875 602.4375,338.1875 Q603.1719,338.1875 603.8125,338.3594 Q604.4688,338.5156 605.0156,338.875 Z " fill="#000000"/><text fill="#000000" font-family="sans-serif" font-size="14" lengthAdjust="spacing" textLength="39" x="622.75" y="348.7285">Cargo</text><line style="stroke:#181818;stroke-width:0.5;" x1="530.5" x2="721.5" y1="359" y2="359"/><text fill="#000000" font-family="sans-serif" font-size="14" lengthAdjust="spacing" textLength="85" x="535.5" y="377.5332">-nome: String</text><text fill="#000000" font-family="sans-serif" font-size="14" lengthAdjust="spacing" textLength="181" x="535.5" y="395.1426">-acrescimoNoSalario: double</text><line style="stroke:#181818;stroke-width:0.5;" x1="530.5" x2="721.5" y1="402.2188" y2="402.2188"/></g><!--MD5=[cf98b8104f7f757d2a3327e9c712e420]
class Funcionario--><g id="elem_Funcionario"><rect codeLine="19" fill="#F1F1F1" height="241.7031" id="Funcionario" rx="2.5" ry="2.5" style="stroke:#181818;stroke-width:0.5;" width="298" x="477" y="7"/><ellipse cx="584.25" cy="23" fill="#ADD1B2" rx="11" ry="11" style="stroke:#181818;stroke-width:1.0;"/><path d="M587.0156,18.875 Q587.1719,18.6563 587.3594,18.5469 Q587.5469,18.4375 587.7656,18.4375 Q588.1406,18.4375 588.375,18.7031 Q588.6094,18.9531 588.6094,19.5625 L588.6094,21.0156 Q588.6094,21.625 588.375,21.8906 Q588.1406,22.1563 587.7656,22.1563 Q587.4219,22.1563 587.2188,21.9531 Q587.0156,21.7656 586.9063,21.25 Q586.8594,20.8906 586.6719,20.7031 Q586.3438,20.3281 585.7344,20.1094 Q585.125,19.8906 584.5,19.8906 Q583.7344,19.8906 583.0938,20.2188 Q582.4688,20.5469 581.9688,21.2969 Q581.4844,22.0469 581.4844,23.0781 L581.4844,24.1719 Q581.4844,25.4063 582.375,26.2344 Q583.2656,27.0469 584.8594,27.0469 Q585.7969,27.0469 586.4531,26.7969 Q586.8438,26.6406 587.2656,26.2031 Q587.5313,25.9375 587.6719,25.8594 Q587.8281,25.7813 588.0313,25.7813 Q588.3594,25.7813 588.6094,26.0469 Q588.875,26.2969 588.875,26.6406 Q588.875,26.9844 588.5313,27.3906 Q588.0313,27.9688 587.2344,28.2969 Q586.1563,28.75 584.8594,28.75 Q583.3438,28.75 582.1406,28.125 Q581.1563,27.625 580.4688,26.5625 Q579.7813,25.4844 579.7813,24.2031 L579.7813,23.0469 Q579.7813,21.7188 580.3906,20.5781 Q581.0156,19.4219 582.1094,18.8125 Q583.2031,18.1875 584.4375,18.1875 Q585.1719,18.1875 585.8125,18.3594 Q586.4688,18.5156 587.0156,18.875 Z " fill="#000000"/><text fill="#000000" font-family="sans-serif" font-size="14" lengthAdjust="spacing" textLength="75" x="604.75" y="28.7285">Funcionario</text><line style="stroke:#181818;stroke-width:0.5;" x1="478" x2="774" y1="39" y2="39"/><text fill="#000000" font-family="sans-serif" font-size="14" lengthAdjust="spacing" textLength="85" x="483" y="57.5332">-matricula: int</text><text fill="#000000" font-family="sans-serif" font-size="14" lengthAdjust="spacing" textLength="82" x="483" y="75.1426">-none: String</text><text fill="#000000" font-family="sans-serif" font-size="14" lengthAdjust="spacing" textLength="162" x="483" y="92.752">-dataDeNascimento: Data</text><text fill="#000000" font-family="sans-serif" font-size="14" lengthAdjust="spacing" textLength="134" x="483" y="110.3613">-endereco: Endereco</text><text fill="#000000" font-family="sans-serif" font-size="14" lengthAdjust="spacing" textLength="151" x="483" y="127.9707">-telefoneContato: String</text><text fill="#000000" font-family="sans-serif" font-size="14" lengthAdjust="spacing" textLength="98" x="483" y="145.5801">-salario: double</text><text fill="#000000" font-family="sans-serif" font-size="14" lengthAdjust="spacing" textLength="88" x="483" y="163.1895">-cargo: Cargo</text><text fill="#000000" font-family="sans-serif" font-size="14" lengthAdjust="spacing" textLength="132" x="483" y="180.7988">-dataAdmissao: Data</text><line style="stroke:#181818;stroke-width:0.5;" x1="478" x2="774" y1="187.875" y2="187.875"/><text fill="#000000" font-family="sans-serif" font-size="14" lengthAdjust="spacing" textLength="109" x="483" y="206.4082">+obterIdade(): int</text><text fill="#000000" font-family="sans-serif" font-size="14" lengthAdjust="spacing" textLength="286" x="483" y="224.0176">+reajustarSalario(porcentagem: double): void</text><text fill="#000000" font-family="sans-serif" font-size="14" lengthAdjust="spacing" textLength="229" x="483" y="241.627">+promover(novoCargo: Cargo): void</text></g><!--MD5=[20a748d5ee336a9a91751b0a3d4f0beb]
class Cliente--><g id="elem_Cliente"><rect codeLine="33" fill="#F1F1F1" height="153.6563" id="Cliente" rx="2.5" ry="2.5" style="stroke:#181818;stroke-width:0.5;" width="174" x="7" y="51"/><ellipse cx="67.75" cy="67" fill="#ADD1B2" rx="11" ry="11" style="stroke:#181818;stroke-width:1.0;"/><path d="M70.5156,62.875 Q70.6719,62.6563 70.8594,62.5469 Q71.0469,62.4375 71.2656,62.4375 Q71.6406,62.4375 71.875,62.7031 Q72.1094,62.9531 72.1094,63.5625 L72.1094,65.0156 Q72.1094,65.625 71.875,65.8906 Q71.6406,66.1563 71.2656,66.1563 Q70.9219,66.1563 70.7188,65.9531 Q70.5156,65.7656 70.4063,65.25 Q70.3594,64.8906 70.1719,64.7031 Q69.8438,64.3281 69.2344,64.1094 Q68.625,63.8906 68,63.8906 Q67.2344,63.8906 66.5938,64.2188 Q65.9688,64.5469 65.4688,65.2969 Q64.9844,66.0469 64.9844,67.0781 L64.9844,68.1719 Q64.9844,69.4063 65.875,70.2344 Q66.7656,71.0469 68.3594,71.0469 Q69.2969,71.0469 69.9531,70.7969 Q70.3438,70.6406 70.7656,70.2031 Q71.0313,69.9375 71.1719,69.8594 Q71.3281,69.7813 71.5313,69.7813 Q71.8594,69.7813 72.1094,70.0469 Q72.375,70.2969 72.375,70.6406 Q72.375,70.9844 72.0313,71.3906 Q71.5313,71.9688 70.7344,72.2969 Q69.6563,72.75 68.3594,72.75 Q66.8438,72.75 65.6406,72.125 Q64.6563,71.625 63.9688,70.5625 Q63.2813,69.4844 63.2813,68.2031 L63.2813,67.0469 Q63.2813,65.7188 63.8906,64.5781 Q64.5156,63.4219 65.6094,62.8125 Q66.7031,62.1875 67.9375,62.1875 Q68.6719,62.1875 69.3125,62.3594 Q69.9688,62.5156 70.5156,62.875 Z " fill="#000000"/><text fill="#000000" font-family="sans-serif" font-size="14" lengthAdjust="spacing" textLength="44" x="88.25" y="72.7285">Cliente</text><line style="stroke:#181818;stroke-width:0.5;" x1="8" x2="180" y1="83" y2="83"/><text fill="#000000" font-family="sans-serif" font-size="14" lengthAdjust="spacing" textLength="70" x="13" y="101.5332">-codigo: int</text><text fill="#000000" font-family="sans-serif" font-size="14" lengthAdjust="spacing" textLength="85" x="13" y="119.1426">-nome: String</text><text fill="#000000" font-family="sans-serif" font-size="14" lengthAdjust="spacing" textLength="162" x="13" y="136.752">-dataDeNascimento: Data</text><text fill="#000000" font-family="sans-serif" font-size="14" lengthAdjust="spacing" textLength="134" x="13" y="154.3613">-endereco: Endereco</text><text fill="#000000" font-family="sans-serif" font-size="14" lengthAdjust="spacing" textLength="151" x="13" y="171.9707">-telefoneContato: String</text><line style="stroke:#181818;stroke-width:0.5;" x1="8" x2="180" y1="179.0469" y2="179.0469"/><text fill="#000000" font-family="sans-serif" font-size="14" lengthAdjust="spacing" textLength="109" x="13" y="197.5801">+obterIdade(): int</text></g><!--MD5=[80f84361c7f24e2618b983cc75e77871]
link Funcionario to Cargo--><g id="link_Funcionario_Cargo"><path codeLine="42" d="M626,249.3 C626,275.13 626,300.89 626,321.74 " fill="none" id="Funcionario-to-Cargo" style="stroke:#181818;stroke-width:1.0;"/><polygon fill="#181818" points="626,326.93,630,317.93,626,321.93,622,317.93,626,326.93" style="stroke:#181818;stroke-width:1.0;"/><text fill="#000000" font-family="sans-serif" font-size="13" lengthAdjust="spacing" textLength="38" x="627" y="293.4951">possui</text></g><!--MD5=[a18b67451c55a7bb30fdee9fe16ab993]
reverse link Endereco to Funcionario--><g id="link_Endereco_Funcionario"><path codeLine="43" d="M407.15,128 C428.65,128 452.7,128 476.78,128 " fill="none" id="Endereco-backto-Funcionario" style="stroke:#181818;stroke-width:1.0;"/><polygon fill="#181818" points="402.03,128,411.03,132,407.03,128,411.03,124,402.03,128" style="stroke:#181818;stroke-width:1.0;"/><text fill="#000000" font-family="sans-serif" font-size="13" lengthAdjust="spacing" textLength="38" x="420.5" y="121.4951">possui</text></g><!--MD5=[43a7c1a046aa41d1c9842e3954366be4]
link Cliente to Endereco--><g id="link_Cliente_Endereco"><path codeLine="45" d="M181.17,128 C204,128 228.47,128 250.8,128 " fill="none" id="Cliente-to-Endereco" style="stroke:#181818;stroke-width:1.0;"/><polygon fill="#181818" points="255.83,128,246.83,124,250.83,128,246.83,132,255.83,128" style="stroke:#181818;stroke-width:1.0;"/><text fill="#000000" font-family="sans-serif" font-size="13" lengthAdjust="spacing" textLength="38" x="199.5" y="121.4951">possui</text></g><!--MD5=[05a221e373dd3fb398e7a5a4dac5eb32]
@startuml
skinparam classAttributeIconSize 0

class Endereco {
    -logradouro: String
    -numero: String
    -complemento: String
    -bairro: String
    -cep: String
    -cidade: String
    -estado: String
    -pais: String
}

class Cargo {
    -nome: String
    -acrescimoNoSalario: double
}

class Funcionario {
    -matricula: int
    -none: String
    -dataDeNascimento: Data
    -endereco: Endereco
    -telefoneContato: String
    -salario: double
    -cargo: Cargo
    -dataAdmissao: Data
    +obterIdade(): int
    +reajustarSalario(porcentagem: double): void
    +promover(novoCargo: Cargo): void
}

class Cliente {
    -codigo: int
    -nome: String
    -dataDeNascimento: Data
    -endereco: Endereco
    -telefoneContato: String    
    +obterIdade(): int
}

Funcionario - -> Cargo: possui
Endereco <- Funcionario: possui

Cliente -> Endereco: possui

@enduml

PlantUML version 1.2022.7(Mon Aug 22 14:01:30 BRT 2022)
(GPL source distribution)
Java Runtime: Java(TM) SE Runtime Environment
JVM: Java HotSpot(TM) 64-Bit Server VM
Default Encoding: UTF-8
Language: pt
Country: BR
--></g></svg>